# xmcd
#
# Track frame offsets: 
#        150
#        14013
#        22714
#        33900
#        54451
#        68949
#        77951
#        95830
#        105899
#        116280
#        129409
#        139733
#        149257
#        162671
#        171770
#
# Disc length: 2510 seconds
#
# Revision: 0
# Processed by: cddbd v1.5.2PL0 Copyright (c) Steve Scherf et al.
# Submitted via: ExactAudioCopy v1.0b1
#
DISCID=c509cc0f
DTITLE=Various Artist - Christmas Favourites - Vol.2 White Christmas
DYEAR=2010
DGENRE=Folklore
TTITLE0=White Christmas - Bing Crosby
TTITLE1=Let It Snow! Let It Snow! Let It Snow! - Dean Martin
TTITLE2=Silent Night - Frank Sinatra
TTITLE3=Holy Night - Johnny Mathis
TTITLE4=The Christmas Song (Chestnuts Roasting On an Open Fire) - Nat 
TTITLE4=King Cole
TTITLE5=Jingle Bells - Pat Boone
TTITLE6=Twelve Days of Christmas - Perry Como
TTITLE7=God Rest Ye Merry Gentlemen - Bing Crosby
TTITLE8=Mistletoe And Holly -Frank Sinatra
TTITLE9=The Christmas Blues - Dean Martin
TTITLE10=Frosty the Snowman - Nat King Cole
TTITLE11=Christmas Alphabet - Dickie Valentine
TTITLE12=Sleigh Ride - Johnny Mathis
TTITLE13=O Little Town Of Bethlehem - Frank Sinatra
TTITLE14='twas the Night Before Christmas - Perry Como
EXTD=
EXTT0=
EXTT1=
EXTT2=
EXTT3=
EXTT4=
EXTT5=
EXTT6=
EXTT7=
EXTT8=
EXTT9=
EXTT10=
EXTT11=
EXTT12=
EXTT13=
EXTT14=
PLAYORDER=
